/* XPM */
static char *coin[] = {
/* columns rows colors chars-per-pixel */
"64 64 8 1 ",
"  c black",
". c #0C0C0C",
"X c #0C0019",
"o c #26004C",
"O c #39973A",
"+ c #9CDB43",
"@ c #C0F675",
"# c gray80",
/* pixels */
"++++++++++++++++++++++++++++++++++++++++++++++++++++++++++++++++",
"++++++++++++++++++++++++++++++++++++++++++++++++++++++++++++++++",
"++++++++++++++++++++++++++++++++++++++++++++++++++++++++++++++++",
"++++++++++++++++++++++++++++++++++++++++++++++++++++++++++++++++",
"++++++++++++++++++++++++++++++++++++++++++++++++++++++++++++++++",
"++++++++++++++++++++++++++++++++++++++++++++++++++++++++++++++++",
"++++++++++++++++++++++++++++++++++++++++++++++++++++++++++++++++",
"++++++++++++++++++++++++++++++++++++++++++++++++++++++++++++++++",
"++++++++++++++++++++++++++++++++++++++++++++++++++++++++++++++++",
"++++++++++++++++++++++++++++++++++++++++++++++++++++++++++++++++",
"++++++++++++++++++++++++++++++++++++++++++++++++++++++++++++++++",
"++++++++++++++++++++++++++++++++++++++++++++++++++++++++++++++++",
"++++++++++++++++++++++++++++++++++++++++++++++++++++++++++++++++",
"++++++++++++++++++++++++++++++++++++++++++++++++++++++++++++++++",
"++++++++++++++++++++++++++++++++++++++++++++++++++++++++++++++++",
"++++++++++++++++++++++++++++++++++++++++++++++++++++++++++++++++",
"++++++++++++++++++++++++++++++++++++++++++++++++++++++++++++++++",
"++++++++++++++++++++++++++++++++++++++++++++++++++++++++++++++++",
"++++++++++++++++++++++++++++++++++++++++++++++++++++++++++++++++",
"++++++++++++++++++++++++++++++ +++++++++++++++++++++++++++++++++",
"+++++++++++++++++++++++++++++ o ++++++++++++++++++++++++++++++++",
"++++++++++++++++++++++++++++ ooo +++++++++++++++++++++++++++++++",
"+++++++++++++++++++++++++++ ooooo ++++++++++++++++++++++++++++++",
"++++++++++++++++++++++++++ ooooooo +++++++++++++++++++++++++++++",
"+++++++++++++++++++++++++ ooooooooo ++++++++++++++++++++++++++++",
"++++++++++++++++++++++++ ooooooooooo ++@@@++++++++++++++++++++++",
"+++++++++++++++++++++++ #oooooooooooX @@@+++++++++++++++++++++++",
"+++++++++++++++++++++++ X##ooooooooX. @@OO++++++++++++++++++++++",
"+++++++++++++++++++++++ XXX##oooooX.. @OO+++++++++++++++++++++++",
"+++++++++++++++++++++++ XXXXX##ooX... ++++++++++++++++++++++++++",
"+++++++++++++++++++++++ XXXXXXX#X.... ++++++++++++++++++++++++++",
"+++++++++++++++++++++++ XXXXXXXo..... ++++++++++++++++++++++++++",
"+++++++++++++++++++++++ XXXXXXXo..... ++++++++++++++++++++++++++",
"++++++++++++++++++++++++ XXXXXXo..... ++++++++++++++++++++++++++",
"++++++++++++++++++++++++ XXXXXXXo.... ++++++++++++++++++++++++++",
"+++++++++++++++++++++++++  XXXXXo... +++++++++++++++++++++++++++",
"+++++++++++++++++++++++++++  XXXo.. ++++++++++++++++++++++++++++",
"+++++++++++++++++++++++++++++  Xo. +++++++++++++++++++++++++++++",
"+++++++++++++++++++++++++++++++   ++++++++++++++++++++++++++++++",
"++++++++++++++++++++++++++++++++++++++++++++++++++++++++++++++++",
"++++++++++++++++++++++++++++++++++++++++++++++++++++++++++++++++",
"++++++++++++++++++++++++++@@++++++++++++++++++++++++++++++++++++",
"++++++++++++++++++++++++++@@@++@@@++++++++++++++++++++++++++++++",
"+++++++++++++++++++++++++OO@@+@@@+++++++++++++++++++++++++++++++",
"+++++++++++++++++++++++@@@OO@+@@OO++++++++++++++++++++++++++++++",
"++++++++++++++++++++++++@@@+++@OO+++++++++++++++++++++++++++++++",
"+++++++++++++++++++++++OO@@+++++++++++++++++++++++++++++++++++++",
"++++++++++++++++++++++++OO@+++++++++++++++++++++++++++++++++++++",
"++++++++++++++++++++++++++++++++++++++++++++++++++++++++++++++++",
"++++++++++++++++++++++++++++++++++++++++++++++++++++++++++++++++",
"++++++++++++++++++++++++++++++++++++++++++++++++++++++++++++++++",
"++++++++++++++++++++++++++++++++++++++++++++++++++++++++++++++++",
"++++++++++++++++++++++++++++++++++++++++++++++++++++++++++++++++",
"++++++++++++++++++++++++++++++++++++++++++++++++++++++++++++++++",
"++++++++++++++++++++++++++++++++++++++++++++++++++++++++++++++++",
"++++++++++++++++++++++++++++++++++++++++++++++++++++++++++++++++",
"++++++++++++++++++++++++++++++++++++++++++++++++++++++++++++++++",
"++++++++++++++++++++++++++++++++++++++++++++++++++++++++++++++++",
"++++++++++++++++++++++++++++++++++++++++++++++++++++++++++++++++",
"++++++++++++++++++++++++++++++++++++++++++++++++++++++++++++++++",
"++++++++++++++++++++++++++++++++++++++++++++++++++++++++++++++++",
"++++++++++++++++++++++++++++++++++++++++++++++++++++++++++++++++",
"++++++++++++++++++++++++++++++++++++++++++++++++++++++++++++++++",
"++++++++++++++++++++++++++++++++++++++++++++++++++++++++++++++++"
};
