/* XPM */
static char *end[] = {
/* columns rows colors chars-per-pixel */
"64 64 13 1 ",
"  c #5E130F",
". c #782913",
"X c gray49",
"o c #914517",
"O c #AB6A1B",
"+ c #39973A",
"@ c #C4961F",
"# c #9CDB43",
"$ c #C0F675",
"% c #898989",
"& c #B7B7B7",
"* c #CDCDCD",
"= c #ECECEC",
/* pixels */
"################################################################",
"################################################################",
"################################################################",
"################################################################",
"################################################################",
"################################################################",
"################################################################",
"################################################################",
"################################################################",
"################################################################",
"################################################################",
"################################################################",
"################################################################",
"################################################################",
"################################################################",
"################################################################",
"################################################################",
"################################################################",
"################################################################",
"################################################################",
"################################################################",
"##################### %%            %% #########################",
"#################### o**oooooOOOOOOO**O ########################",
"################### OO==OOOOOOOOOooo==oO #######################",
"################## @O@**O@O@O@O@O@O@**O@O ######################",
"################## @@@==@@@@@OOOOOO@==@@@ ######################",
"################## @OO==OO@@@@@@@@@@==@@@ ######################",
"################## O@O**@O@O@O@O@O@O**@O@ ######################",
"################## OOO==OOOOoooooOOO==OOO ######################",
"################## Ooo**OOOOOOOOOOoo**ooo ######################",
"################## oOo**OoOoOoOoOoOo**OoO ######################",
"################## ooo**oooooooooooo**ooo ######################",
"##################    XX     =*     XX    ######################",
"################## ...%%.....*X.....%%... ######################",
"##################   .&&oooo........&&... ######################",
"################## ...XX........ooooXXoo. ######################",
"################## ooo%%..    ......%%... ######################",
"################## ...%%............%%... ######################",
"################## ...&&........oooo&&.   ######################",
"################## .ooXXoooo........XX... ######################",
"################## ...%%......    ..%%ooo ######################",
"################## ...%%........... %%    ######################",
"##################  ..%%..        ..%%..  ######################",
"##################                        ######################",
"#######################$$$++$#$$++##############################",
"########################$$$###$++###############################",
"#######################++$$#####################################",
"########################++$#####################################",
"################################################################",
"################################################################",
"################################################################",
"################################################################",
"################################################################",
"################################################################",
"################################################################",
"################################################################",
"################################################################",
"################################################################",
"################################################################",
"################################################################",
"################################################################",
"################################################################",
"################################################################",
"################################################################"
};
