/* XPM */
static char *wall[] = {
/* columns rows colors chars-per-pixel */
"64 64 29 1 ",
"  c #330F13",
". c #122020",
"X c #1B392D",
"o c #102D33",
"O c #662E1E",
"+ c #423934",
"@ c #21660E",
"# c #24523B",
"$ c #1A7A3E",
"% c #297F6F",
"& c #A37230",
"* c #8E5252",
"= c #BB7547",
"- c #BA756A",
"; c #39973A",
": c #14A02E",
"> c #5E9916",
", c #7CB035",
"< c #59C135",
"1 c #3CB878",
"2 c #4AE562",
"3 c #CCBD3C",
"4 c #A08662",
"5 c #DBA463",
"6 c #9CDB43",
"7 c #D6F264",
"8 c #C0F675",
"9 c #C7B08B",
"0 c #E4D2AA",
/* pixels */
"6666666666666666666666666666666666666666666666666666666666666666",
"6666666666666666666666666666666666666666666666666666666666666666",
"6666666666666666666666666666666666666666666666666666666666666666",
"6666666666666666666666666666666666666666666666666666666666666666",
"6666666666666666666666666666666666666666666666666666666666666666",
"6666666+++666666666666666666666666666666666666666666666666666666",
"666666+---+66666666666666666666666666666666666666666666666666666",
"66666+-----+666666666666666666oo2oooo6o6666666666666666666666666",
"6666+-----0-+66666666666666o6o%%%%%%%o2o666666666666666666666666",
"666+*0------*+66666666666oo2o%11111111%%oo6666666666666666666666",
"666+**--0--**+6666666666o%%%%11112121111%%o666666666666666666666",
"6666+*******+6666666666o%11111122222212111%o66666666666666666666",
"66666+++++++6666666666o%1112122%2%22%2%11111o6666666666666666666",
"666666+944+66666666666o1111%2%2222%222111111o6666666666666666666",
"66666+99994+666666666o%12211%1%%%212%%211211%o666666666666666666",
"6666,,+999+,,666666666o%1%2111111%1%o1%11%1%%o666666666666666666",
"6666,,,,,,,,,66666666o%%%1%1121112oo2oooo1o%%2o66666666666666666",
"66666,,,,,,,66666666o2%1%%111%1o2o%%%%%%%o2o%o666666666666666666",
"66666666666666666666oo%o%%%%1oo2o%11111111%%oo666666666666666666",
"6666666666666666666o%1o%%%%1o%%%%11112121111%%o66666666666666666",
"666666666666666666o%11o%%1%o%11111122222212111%o6666666666666666",
"666666666666666666o1111o%oo%1112122%2%22%2%11111o666666666666666",
"66666666666666666o%12211o%o1111%2%2222%222111111o666666666666666",
"666666666666666666o%1%211o%12211%1%%%212%%211211%o66666666666666",
"66666666666666666o%%%1%112o%1%2111111%1%11%11%1%%o66666666666666",
"666666666666666662%1%%111o%%%1%112111211211211%%%o66666666666666",
"66666666666666666o%o%%%%o2%1%%111%112%12%11%1%%1%o66666666666666",
"666666666666666666o%%%%1oo%o%%%%1%%1%11%1%%%%%%o%o66666666666666",
"666666666666666666o%%1%o%%o%%%%1o%%%%%%%%%1%%%1%o666666666666666",
"6666666666666666666o%o%%%%o%%1%o%%%%%%%%%%o1%%o%o666666666666666",
"66666666666666666666o%%%%%%o%o%%%%%%%%1%%%%o%%%o6666666666666666",
"666666666666666666666oo%%%1oo%%%%%%%%%%%%%%%%%o66666666666666666",
"66666666666666666666666ooo%ooooo%%1%%1o%%%oooo666666666666666666",
"66666666666666666666666666o66 OOoo%ooo%ooo6666666666666666666666",
"66666666666666666666666666666 &33OoO 6o666666666666666o666666666",
"6666666666666666666666666666 &3&&OO  666666666666666oo2oooo6o666",
"6666666666666666666666666666 &33&&O 6666666666666o6o%%%%%%%o2o66",
"6666666666666666666666666666  &3OO  66666666666oo2o%11111111%%oo",
"6666666666666666666666666666 &33&O 66666666666o%%%%11112121111%%",
"6666666666666666666666666666  &3OO  666666666o%11111122222212111",
"6666666666666666.66666666666 &33&&O  6666666o%1112122%2%22%2%111",
"6666666666666.6..6.6666666886 &3&&OO 6666666o1111%2%2222%2221111",
"66666666.666.6.7X.7.666.66888 &33&O  666666o%12211%1%%%212%%2112",
"6666666.7.66.7:6X:7.66.6.;;88  &3OO  6666666o%1%2111111%1%11%11%",
"66666.6.66.6.7$6X:6.6.6<.8;;..&33&&O  66666o%%%1%112111211211211",
"6666.7.6.6<.:6$6::6.6.6<.88.7. &3&&OO 6666o2%1%%111%112%12%11%1%",
"66666.6..:$.:6$$::$:.$<.;8.7<. &33&&O 66666o%o%%%%1%%1%11%1%%%%%",
"666.66.6$.$<$$$<:$:$.:<.;.:<<:.&3&&OO 666666o%%%%1o%%%%%%%%%1%%%",
"66.7.66.<$$#<$$$<$$.:<.:.:<:#.&33&&O  666666o%%1%o%%%%%%%%%%o1%%",
"66.6<...$<$$<$$$:$$$<::#:<:#.7.3&&OO 66666666o%o%%%%%%%%1%%%%o%%",
"66..<<$X$<$$<#$X:#$:<:#$<:#.6.&33&&O >66666666o%%%%%1%%1o%%%%%%%",
"666.:<$#X$<$#<$X:$$<$#$<:#.<:..&&&OO @6>6666666ooooo%ooo%ooooooo",
"6..6.$<##X<$#<#X:$:##$:$#.<:X::.O&O&3 6@666666666666o666o6666666",
".6:.#$:<#XX:#<#X:$:#X::#.<::X:.3&O3OOO 6666666666666666666666666",
"6.6:.#$$<#X:#<XX::#X::#$#<:X:67.> O >   6666666666666666++++6666",
"6.$:<:X$$:X:#X:X#:#X$:$<<$X$<.. @6 6@666666666666666666+5555+666",
"66.$<#XX#:#X:X:X#$X#$#$#$<$<.6666666666666666666666666+555555+66",
"666.$<#X##$X:X:X$XX$$:X:<#:.6666666666666666666666666+=555555=+6",
"6666.#:#X#$X$X:X$XXX$XX:#$.66666666666666666666666666+==5555==+6",
"66666.:#XX$X$X:X$XXX$::#X.6666666666666666666666666666+======+66",
"66666..$XX$X$XXX.XX$#$XX$.66666666666666666666666666666++++++666",
"666666.$XXX$X$XX.XX#X#X$.,66666666666666666666666666666+4499+666",
"66666,..$XX#X##X.X##X#X#.,66666666666666666666666666666+9999+666",
"6666,,,,#.,#.,,,,#,,,#,#,,,6666666666666666666666666666,+99+,666"
};
